# xmcd CD database file
# Copyright (C) 1997 Ti Kan
# 
# Track frame offsets:
#     150
#     16450
#     33630
#     48355
#     65427
#     76522
#     94222
#     107322
#     121502
#     137567
# 
# Disc length: 2033 seconds
# 
# Revision: 1
# Processed by: cddbd v1.4b41PL1 Copyright (c) Steve Scherf et al.
# Submitted via: DiscPlay 4.0.3
# 
DISCID=6f07ef0a
DTITLE=Country Dance Kings - Country Dance Club USA - Denim Dancin'
DYEAR=1900
DGENRE=
TTITLE0=He Thinks He'll Keep Her
TTITLE1=Standing Outside the Fire
TTITLE2=No Doubt About It
TTITLE3=My Love
TTITLE4=If the Good Die Young
TTITLE5=I'd Like to Have That One Back
TTITLE6=Indian Outlaw
TTITLE7=Words by Heart
TTITLE8=Piece of My Heart
TTITLE9=(Who Says) You Can't Have It All
EXTD=
EXTT0=
EXTT1=
EXTT2=
EXTT3=
EXTT4=
EXTT5=
EXTT6=
EXTT7=
EXTT8=
EXTT9=
PLAYORDER=
